<?xml version="1.0" encoding="UTF-8" standalone="no"?>
<!-- Created with Inkscape (http://www.inkscape.org/) -->

<svg
   width="31.073706mm"
   height="13.054954mm"
   viewBox="0 0 31.073706 13.054954"
   version="1.1"
   id="svg5641"
   inkscape:version="1.2 (1:1.2.1+202207142221+cd75a1ee6d)"
   sodipodi:docname="bird-4.svg"
   inkscape:export-filename="bird-4.png"
   inkscape:export-xdpi="96"
   inkscape:export-ydpi="96"
   xmlns:inkscape="http://www.inkscape.org/namespaces/inkscape"
   xmlns:sodipodi="http://sodipodi.sourceforge.net/DTD/sodipodi-0.dtd"
   xmlns="http://www.w3.org/2000/svg"
   xmlns:svg="http://www.w3.org/2000/svg">
  <sodipodi:namedview
     id="namedview5643"
     pagecolor="#ffffff"
     bordercolor="#666666"
     borderopacity="1.0"
     inkscape:showpageshadow="2"
     inkscape:pageopacity="0.0"
     inkscape:pagecheckerboard="0"
     inkscape:deskcolor="#d1d1d1"
     inkscape:document-units="mm"
     showgrid="false"
     inkscape:zoom="0.71624579"
     inkscape:cx="-474.69738"
     inkscape:cy="284.81843"
     inkscape:window-width="1480"
     inkscape:window-height="1005"
     inkscape:window-x="78"
     inkscape:window-y="105"
     inkscape:window-maximized="0"
     inkscape:current-layer="layer1" />
  <defs
     id="defs5638" />
  <g
     inkscape:label="Warstwa 1"
     inkscape:groupmode="layer"
     id="layer1"
     transform="translate(-230.60797,-73.307049)">
    <path
       style="fill:#ffffff;fill-opacity:0.498039;stroke:#ffffff;stroke-width:0.79375;stroke-linecap:butt;stroke-linejoin:miter;stroke-dasharray:none;stroke-opacity:1"
       d="m 257.75694,79.461264 0.35788,-0.33053 2.06262,0.37462 0.93938,0.0101 0.12745,-0.47008 c -0.29127,-0.34608 -0.6385,-0.58476 -1.02939,-0.75084 -0.64196,-0.27276 -2.06114,-0.36091 -2.06114,-0.36091 l -2.64591,-1.91947 c 0,0 -5.33232,-2.40844 -8.15573,-2.30694 -0.8651,0.0311 -1.58853,0.73806 -2.44171,0.88446 -2.16499,0.3715 -6.58969,-0.0504 -6.58969,-0.0504 0,0 -1.40628,-0.55433 -2.10938,-0.41563 -0.54544,0.1076 -1.39136,0.91972 -1.39136,0.91972 l -1.8145,0.8188 1.76062,-0.16649 c 0,0 1.55253,0.53812 2.36172,0.56919 1.11991,0.043 3.31939,-0.53479 3.31939,-0.53479 l 2.04437,0.91161 -4.3156,3.39992 c -1.4456,1.13887 -2.1761,2.94242 -5.06086,4.47162 l -2.43701,0.33486 1.94858,0.3498 1.88341,-0.89786 -0.56066,0.92945 1.77602,-1.01159 -0.13763,0.71083 1.96151,-1.08418 -0.35477,0.71873 2.31389,-1.3983 -0.0935,0.60576 1.51558,-1.0346 0.097,0.31062 6.86517,-3.47566 1.35653,0.30399 c 0,0 -0.19078,1.88957 0.0294,2.96353 0.0151,0.0735 0.0321,0.14323 0.0512,0.20824 0.16079,0.54666 0.8887,1.46027 0.8887,1.46027 l 0.61224,0.13911 0.67207,0.49676 0.69629,-0.0384 0.75017,0.72793 0.54513,-0.43252 1.00241,0.26388 0.28701,-0.6625 0.59713,0.0536 0.0837,-0.63076 0.95894,-0.14042 -0.0148,-0.53544 0.53397,-0.38079 0.12327,-1.93673 0.57802,-0.84091 1.63435,0.26398 0.52845,-0.0523 -0.66148,-0.81139 z"
       id="path7236"
       sodipodi:nodetypes="cccccaccsscscccsccscccccccccccccccssccccccccccccccccccc" />
  </g>
</svg>
