<?xml version="1.0" encoding="UTF-8" standalone="no"?>
<!-- Created with Inkscape (http://www.inkscape.org/) -->

<svg
   width="36.229454mm"
   height="25.063799mm"
   viewBox="0 0 36.229454 25.063799"
   version="1.1"
   id="svg6181"
   inkscape:version="1.2 (1:1.2.1+202207142221+cd75a1ee6d)"
   sodipodi:docname="bird-5.svg"
   inkscape:export-filename="bird-5.png"
   inkscape:export-xdpi="96"
   inkscape:export-ydpi="96"
   xmlns:inkscape="http://www.inkscape.org/namespaces/inkscape"
   xmlns:sodipodi="http://sodipodi.sourceforge.net/DTD/sodipodi-0.dtd"
   xmlns="http://www.w3.org/2000/svg"
   xmlns:svg="http://www.w3.org/2000/svg">
  <sodipodi:namedview
     id="namedview6183"
     pagecolor="#ffffff"
     bordercolor="#666666"
     borderopacity="1.0"
     inkscape:showpageshadow="2"
     inkscape:pageopacity="0.0"
     inkscape:pagecheckerboard="0"
     inkscape:deskcolor="#d1d1d1"
     inkscape:document-units="mm"
     showgrid="false"
     inkscape:zoom="0.71624579"
     inkscape:cx="68.412269"
     inkscape:cy="48.865907"
     inkscape:window-width="1480"
     inkscape:window-height="1005"
     inkscape:window-x="123"
     inkscape:window-y="150"
     inkscape:window-maximized="0"
     inkscape:current-layer="layer1" />
  <defs
     id="defs6178" />
  <g
     inkscape:label="Warstwa 1"
     inkscape:groupmode="layer"
     id="layer1"
     transform="translate(-86.835979,-135.74635)">
    <path
       style="fill:#ffffff;fill-opacity:0.498039;stroke:#ffffff;stroke-width:0.79375;stroke-linecap:butt;stroke-linejoin:miter;stroke-dasharray:none;stroke-opacity:1"
       d="m 99.540789,149.84309 c 0,0 -3.044786,-0.61846 -4.517706,-1.08323 -0.861329,-0.27178 -2.489219,-1.1125 -2.489219,-1.1125 0,0 -0.785645,-0.67071 -1.271138,-0.76286 -0.506768,-0.0962 -1.042755,0.0753 -1.526331,0.25476 -0.67079,0.24899 -1.835041,1.11365 -1.835041,1.11365 l 4.029672,0.38509 c 0,0 1.762507,0.96652 2.596519,1.52504 3.321779,2.46141 6.170965,5.19305 10.157865,6.52595 1.09529,0.34503 3.41343,0.46557 3.41343,0.46557 0,0 0.48627,1.28384 0.97562,1.76506 0.7205,0.70852 2.75188,1.27172 2.75188,1.27172 l -0.42498,-0.86443 c 0,0 -1.49158,-0.68897 -2.02377,-1.22412 -0.44398,-0.44646 -0.65571,-1.01801 -0.65571,-1.01801 0,0 1.65614,-0.0846 2.44191,0.13235 1.15986,0.32019 3.54679,1.46947 3.54679,1.46947 l -0.35949,-0.97739 c 0.32543,0.19094 0.7491,0.044 1.15114,-0.0285 l -0.24447,-0.43979 0.71131,-0.3956 -0.67254,-0.65164 0.84384,-0.46366 c -0.38951,-0.17085 -0.83272,-0.2802 -1.05317,-0.64465 l 0.36203,-0.61355 -0.55745,-0.0395 0.0587,-0.53977 c 0,0 -2.20651,1.12449 -3.30354,0.83135 -0.67877,-0.18137 -1.51501,-1.4654 -1.51501,-1.4654 0,0 0.22192,-0.16603 0.28549,-0.28435 0.10761,-0.20026 0.0112,-0.47771 0.13464,-0.66858 1.3527,-2.09091 3.65908,-2.53585 6.07583,-4.34736 1.13119,-0.8479 2.41977,-1.66154 3.54699,-2.65887 0.21063,-0.18636 1.11765,-0.638 1.11765,-0.638 l -0.78294,-0.15091 c 0.43562,-0.19785 0.81449,-0.39699 1.16383,-0.5968 l -1.00614,-0.0421 1.54833,-0.77222 c -1.00404,0.23777 -2.00358,0.45002 -2.94779,0.34806 0.89496,-0.26798 1.51725,-0.74238 2.19039,-1.17829 -0.75734,0.31096 -1.51467,0.57799 -2.27201,0.65361 0.88203,-0.45865 1.12428,-1.00542 1.52157,-1.53083 -0.59601,0.56807 -1.29737,1.0655 -2.14212,1.46675 l 0.57584,-2.02336 c 0,0 -1.41125,2.1804 -2.46552,2.87482 -2.35054,1.54822 -5.50153,1.34456 -8.05919,2.51947 -1.19567,0.54926 -3.34813,2.09092 -3.34813,2.09092 l -5.344514,-5.85352 -0.877563,-1.82989 -0.466288,0.44275 c -0.261735,-0.58222 -0.358622,-1.24272 -0.931319,-1.67729 -0.01055,0.42839 -0.223399,0.85535 -0.602688,1.28114 0.09419,-0.83495 -0.258411,-1.9428 -0.797174,-2.6642 0.104329,0.7283 0.186602,1.45934 -0.342195,2.26632 -0.05592,-1.27176 -0.360767,-2.3074 -0.93797,-3.0847 0.06266,0.49057 0.178642,0.98629 -0.06782,1.44701 -0.08915,-0.79314 -0.477016,-1.3786 -0.847849,-1.97591 0.465333,2.14169 0.509782,4.22156 0.764316,6.33229 l 0.45952,0.89882 -0.04666,1.29025 c -0.106453,0.80023 1.147176,-0.49056 4.31033,4.6496 z"
       id="path4780"
       sodipodi:nodetypes="cscsscccccsccscscccccccccccscsssscccccccccccsscccccccccccccccc" />
  </g>
</svg>
