<?xml version="1.0" encoding="UTF-8" standalone="no"?>
<!-- Created with Inkscape (http://www.inkscape.org/) -->

<svg
   width="33.415272mm"
   height="25.568974mm"
   viewBox="0 0 33.415272 25.568974"
   version="1.1"
   id="svg5029"
   inkscape:version="1.2 (1:1.2.1+202207142221+cd75a1ee6d)"
   sodipodi:docname="bird-3.svg"
   inkscape:export-filename="bird-3.png"
   inkscape:export-xdpi="96"
   inkscape:export-ydpi="96"
   xmlns:inkscape="http://www.inkscape.org/namespaces/inkscape"
   xmlns:sodipodi="http://sodipodi.sourceforge.net/DTD/sodipodi-0.dtd"
   xmlns="http://www.w3.org/2000/svg"
   xmlns:svg="http://www.w3.org/2000/svg">
  <sodipodi:namedview
     id="namedview5031"
     pagecolor="#ffffff"
     bordercolor="#666666"
     borderopacity="1.0"
     inkscape:showpageshadow="2"
     inkscape:pageopacity="0.0"
     inkscape:pagecheckerboard="0"
     inkscape:deskcolor="#d1d1d1"
     inkscape:document-units="mm"
     showgrid="false"
     inkscape:zoom="0.71624579"
     inkscape:cx="-13.961688"
     inkscape:cy="208.02915"
     inkscape:window-width="1480"
     inkscape:window-height="1005"
     inkscape:window-x="33"
     inkscape:window-y="60"
     inkscape:window-maximized="0"
     inkscape:current-layer="layer1" />
  <defs
     id="defs5026" />
  <g
     inkscape:label="Warstwa 1"
     inkscape:groupmode="layer"
     id="layer1"
     transform="translate(-108.74055,-93.363076)">
    <path
       style="fill:#ffffff;fill-opacity:0.498039;stroke:#ffffff;stroke-width:0.79375;stroke-linecap:butt;stroke-linejoin:miter;stroke-dasharray:none;stroke-opacity:1"
       d="m 124.75922,103.30072 v -1.5053 l -1.28908,1.20217 0.40545,-2.01997 -0.95866,0.8112 -0.14828,-1.34259 c 0,0 -1.89304,3.63229 -2.34881,5.60661 -0.22687,0.98274 -0.38469,2.03484 -0.17246,3.02084 0.25996,1.20783 1.71495,3.28587 1.71495,3.28587 0,0 -2.34606,0.26941 -3.51375,0.16314 -1.46389,-0.13323 -4.29579,-0.99641 -4.29579,-0.99641 0,0 -1.3921,-0.95622 -2.16536,-0.87078 -0.64763,0.0716 -1.27422,1.08614 -1.27422,1.08614 l -1.75099,1.17906 2.07581,-0.23253 c 1.2903,0.18399 1.55263,-0.76996 5.46405,0.33382 0,0 4.56585,2.24791 7.02904,3.74754 1.84406,1.12268 2.63628,1.39459 4.08382,1.5987 3.12943,0.44126 6.39278,-0.0429 9.4402,-0.88025 0.84345,-0.23177 2.37042,-1.12569 2.37042,-1.12569 l -2.19161,-0.42289 c 0,0 -1.25951,-0.1683 -1.87021,-0.33638 -0.76433,-0.21037 -2.22645,-0.83603 -2.22645,-0.83603 l -0.0961,-0.98637 c 0,0 1.1345,-1.13308 1.55251,-1.80881 1.03332,-1.67044 1.66112,-3.50727 2.28743,-5.43054 0.17345,-0.53264 0.23237,-1.89447 0.23237,-1.89447 0,0 2.02614,-2.50603 2.74648,-3.93387 0.44748,-0.886961 0.12975,-1.504181 0.33458,-2.226031 0.23799,-0.83873 1.02763,-2.405193 1.02763,-2.405193 l -1.78697,0.989163 1.03281,-2.24056 -1.91491,1.548143 1.44883,-2.150516 -2.16692,1.931136 1.06614,-2.536073 -6.03568,6.964361 c 0,0 -3.37494,3.05402 -4.67449,4.89968 -0.34367,0.48808 -0.80316,1.6006 -0.80316,1.6006 0,0 -1.32726,-1.76037 -1.73862,-2.76989 -0.2074,-0.50898 -0.34911,-1.61146 -0.34911,-1.61146 l -0.54088,0.59443"
       id="path4297"
       sodipodi:nodetypes="ccccccsscscsccccsssccsccsscsaccccccccscscc" />
  </g>
</svg>
