<?xml version="1.0" encoding="UTF-8" standalone="no"?>
<!-- Created with Inkscape (http://www.inkscape.org/) -->

<svg
   width="30.023523mm"
   height="21.929884mm"
   viewBox="0 0 30.023523 21.929884"
   version="1.1"
   id="svg7987"
   inkscape:version="1.2 (1:1.2.1+202207142221+cd75a1ee6d)"
   sodipodi:docname="bird-7.svg"
   inkscape:export-filename="bird-7.png"
   inkscape:export-xdpi="96"
   inkscape:export-ydpi="96"
   xmlns:inkscape="http://www.inkscape.org/namespaces/inkscape"
   xmlns:sodipodi="http://sodipodi.sourceforge.net/DTD/sodipodi-0.dtd"
   xmlns="http://www.w3.org/2000/svg"
   xmlns:svg="http://www.w3.org/2000/svg">
  <sodipodi:namedview
     id="namedview7989"
     pagecolor="#ffffff"
     bordercolor="#666666"
     borderopacity="1.0"
     inkscape:showpageshadow="2"
     inkscape:pageopacity="0.0"
     inkscape:pagecheckerboard="0"
     inkscape:deskcolor="#d1d1d1"
     inkscape:document-units="mm"
     showgrid="false"
     inkscape:zoom="0.71624579"
     inkscape:cx="34.904219"
     inkscape:cy="149.39006"
     inkscape:window-width="1480"
     inkscape:window-height="1005"
     inkscape:window-x="0"
     inkscape:window-y="27"
     inkscape:window-maximized="0"
     inkscape:current-layer="layer1" />
  <defs
     id="defs7984" />
  <g
     inkscape:label="Warstwa 1"
     inkscape:groupmode="layer"
     id="layer1"
     transform="translate(-95.792584,-108.79507)">
    <path
       style="fill:none;fill-opacity:1;stroke:#ff0015;stroke-width:0.264583px;stroke-linecap:butt;stroke-linejoin:miter;stroke-opacity:1"
       d="m 99.022617,123.58756 c -0.46239,0.15327 -0.95843,1.10322 -0.95843,1.10322 l -2.11328,0.91936 2.08371,-0.17092 -1.14684,0.63298 2.93718,-0.3051 c 0,0 2.300893,-0.0992 3.390943,0.20773 1.42339,0.40078 2.56716,1.47942 3.91891,2.07896 1.5037,0.66694 3.04505,1.2784 4.64048,1.67906 1.33001,0.334 2.69968,0.61568 4.07082,0.59405 1.46993,-0.0232 2.90542,-0.46137 4.34187,-0.77417 0.67892,-0.14784 2.01845,-0.5205 2.01845,-0.5205 l 3.50101,-0.52779 c 0,0 -2.06527,-0.58795 -3.03208,-1.04385 -0.79035,-0.37269 -2.23527,-1.36951 -2.23527,-1.36951 0.22747,-0.35465 1.36984,-1.87316 1.18885,-5.0118 -0.0262,-0.45408 0.73262,-1.15114 0.73262,-1.15114 l -0.69562,-0.52999 1.1752,-0.37125 -0.84135,-0.49674 1.36937,-0.43991 -0.84256,-0.45767 1.11692,-0.62006 -0.80103,-0.34772 0.66387,-0.48122 -0.51547,-0.2251 0.60388,-0.4968 -0.54401,-0.36678 0.55367,-0.79322 -1.31757,0.51852 1.11617,-1.66716 -2.42413,1.23693 1.56795,-2.60357 -2.73843,2.20029 1.63414,-2.88428 -2.47738,2.30045 0.96007,-2.95315 c -0.8168,1.07826 -1.42154,2.3975 -2.48197,3.19889 l 0.0597,-1.05144 -0.9807,0.19256 0.54989,-1.34556 -1.59798,0.7611 0.64078,-1.9712 -2.1482,1.98716 0.70796,-2.81672 -1.39468,2.37177 0.0923,-2.80465 c 0,0 -2.31076,4.65213 -3.10755,7.11415 -0.17483,0.54023 -0.19321,1.12239 -0.36201,1.66453 -0.156,0.50102 -0.50774,0.93935 -0.59785,1.4563 -0.26334,1.51073 0.98121,3.27394 0.20416,4.596 -0.48794,0.83017 -1.6308,1.15416 -2.58384,1.29197 -1.83745,0.2657 -5.4832,-0.97772 -5.4832,-0.97772 0,0 -1.635813,-0.78903 -2.419443,-0.52929 z"
       id="path309"
       sodipodi:nodetypes="scccccsssssccscscccccccccccccccccccccccccccccccssssscs" />
    <path
       style="fill:#ffffff;fill-opacity:0.498039;stroke:#ffffff;stroke-width:0.79375;stroke-linecap:butt;stroke-linejoin:miter;stroke-dasharray:none;stroke-opacity:1"
       d="m 99.022617,123.58756 c -0.46239,0.15327 -0.95843,1.10322 -0.95843,1.10322 l -2.11328,0.91936 2.08371,-0.17092 -1.14684,0.63298 2.93718,-0.3051 c 0,0 2.300893,-0.0992 3.390943,0.20773 1.42339,0.40078 2.56716,1.47942 3.91891,2.07896 1.5037,0.66694 3.04505,1.2784 4.64048,1.67906 1.33001,0.334 2.69968,0.61568 4.07082,0.59405 1.46993,-0.0232 2.90542,-0.46137 4.34187,-0.77417 0.67892,-0.14784 2.01845,-0.5205 2.01845,-0.5205 l 3.50101,-0.52779 c 0,0 -2.06527,-0.58795 -3.03208,-1.04385 -0.79035,-0.37269 -2.23527,-1.36951 -2.23527,-1.36951 0.22747,-0.35465 1.36984,-1.87316 1.18885,-5.0118 -0.0262,-0.45408 0.73262,-1.15114 0.73262,-1.15114 l -0.69562,-0.52999 1.1752,-0.37125 -0.84135,-0.49674 1.36937,-0.43991 -0.84256,-0.45767 1.11692,-0.62006 -0.80103,-0.34772 0.66387,-0.48122 -0.51547,-0.2251 0.60388,-0.4968 -0.54401,-0.36678 0.55367,-0.79322 -1.31757,0.51852 1.11617,-1.66716 -2.42413,1.23693 1.56795,-2.60357 -2.73843,2.20029 1.63414,-2.88428 -2.47738,2.30045 0.96007,-2.95315 c -0.8168,1.07826 -1.42154,2.3975 -2.48197,3.19889 l 0.0597,-1.05144 -0.9807,0.19256 0.54989,-1.34556 -1.59798,0.7611 0.64078,-1.9712 -2.1482,1.98716 0.70796,-2.81672 -1.39468,2.37177 0.0923,-2.80465 c 0,0 -2.31076,4.65213 -3.10755,7.11415 -0.17483,0.54023 -0.19321,1.12239 -0.36201,1.66453 -0.156,0.50102 -0.50774,0.93935 -0.59785,1.4563 -0.26334,1.51073 0.98121,3.27394 0.20416,4.596 -0.48794,0.83017 -1.6308,1.15416 -2.58384,1.29197 -1.83745,0.2657 -5.4832,-0.97772 -5.4832,-0.97772 0,0 -1.635813,-0.78903 -2.419443,-0.52929 z"
       id="path309-7"
       sodipodi:nodetypes="scccccsssssccscscccccccccccccccccccccccccccccccssssscs" />
  </g>
</svg>
