<?xml version="1.0" encoding="UTF-8" standalone="no"?>
<!-- Created with Inkscape (http://www.inkscape.org/) -->

<svg
   width="121.43327"
   height="102.82047"
   viewBox="0 0 32.129218 27.204584"
   version="1.1"
   id="svg468"
   inkscape:version="1.2 (1:1.2.1+202207142221+cd75a1ee6d)"
   sodipodi:docname="bird-1.svg"
   inkscape:export-filename="bird-1.png"
   inkscape:export-xdpi="96"
   inkscape:export-ydpi="96"
   xmlns:inkscape="http://www.inkscape.org/namespaces/inkscape"
   xmlns:sodipodi="http://sodipodi.sourceforge.net/DTD/sodipodi-0.dtd"
   xmlns="http://www.w3.org/2000/svg"
   xmlns:svg="http://www.w3.org/2000/svg">
  <sodipodi:namedview
     id="namedview470"
     pagecolor="#ffffff"
     bordercolor="#666666"
     borderopacity="1.0"
     inkscape:showpageshadow="2"
     inkscape:pageopacity="0.0"
     inkscape:pagecheckerboard="true"
     inkscape:deskcolor="#d1d1d1"
     inkscape:document-units="px"
     showgrid="false"
     inkscape:zoom="1"
     inkscape:cx="-279"
     inkscape:cy="-44"
     inkscape:window-width="2560"
     inkscape:window-height="1305"
     inkscape:window-x="0"
     inkscape:window-y="27"
     inkscape:window-maximized="1"
     inkscape:current-layer="layer1" />
  <defs
     id="defs465" />
  <g
     inkscape:label="Warstwa 1"
     inkscape:groupmode="layer"
     id="layer1"
     transform="translate(-178.70579,-55.554313)">
    <path
       style="fill:#ffffff;fill-opacity:0.49803922;stroke:#ffffff;stroke-width:0.79375;stroke-linecap:butt;stroke-linejoin:miter;stroke-dasharray:none;stroke-opacity:1"
       d="m 188.35245,76.068632 c -1.94543,-0.24421 -3.76888,-2.050425 -5.46041,-2.327249 -0.85556,-0.140016 -1.5024,0.327637 -2.11857,0.471271 -0.76137,0.177481 -1.96293,0.506272 -1.96293,0.506272 1.74621,0.218843 3.19461,1.620696 4.71998,1.365456 0.97216,-0.16267 2.084,0.15123 2.96483,0.59362 2.57216,1.29187 7.25545,3.64405 7.25545,3.64405 0,0 3.52038,2.97072 7.43262,1.738 2.91938,-0.91987 9.03891,-1.61827 9.03891,-1.61827 1.51909,-0.77995 -5.17068,-1.62275 -6.64835,-3.73136 2.49211,-3.985373 2.28049,-7.639308 3.46157,-10.576835 l 2.79042,-6.940163 -1.69761,0.746104 1.38467,-2.121472 -2.53031,1.791534 1.8113,-3.300817 -2.55329,2.891918 0.6774,-3.481792 c -3.716,8.153732 -10.3623,10.393636 -10.28391,12.133621 0.079,1.753671 -1.44555,5.170537 -1.44555,5.170537 -0.6515,-0.605127 -1.82047,-1.394375 -2.43905,-1.37251 l -1.55117,0.05483 0.47047,-0.694728 -1.3176,0.204253 0.28977,-1.458626 -1.0101,0.724074 -0.50576,-1.813002 c -0.29432,1.422753 -1.22018,3.006988 -1.01107,4.572166 0.43909,1.261503 2.86466,1.378929 3.74189,1.955121 1.17823,0.773897 -2.33882,1.020207 -3.5036,0.873997 z"
       id="path332"
       sodipodi:nodetypes="ssscsscsccscccccccscscccccccsss" />
  </g>
</svg>
