<?xml version="1.0" encoding="UTF-8" standalone="no"?>
<!-- Created with Inkscape (http://www.inkscape.org/) -->

<svg
   width="29.201321mm"
   height="23.539183mm"
   viewBox="0 0 29.201321 23.539183"
   version="1.1"
   id="svg8164"
   inkscape:version="1.2 (1:1.2.1+202207142221+cd75a1ee6d)"
   sodipodi:docname="bird-8.svg"
   inkscape:export-filename="bird-8.png"
   inkscape:export-xdpi="96"
   inkscape:export-ydpi="96"
   xmlns:inkscape="http://www.inkscape.org/namespaces/inkscape"
   xmlns:sodipodi="http://sodipodi.sourceforge.net/DTD/sodipodi-0.dtd"
   xmlns="http://www.w3.org/2000/svg"
   xmlns:svg="http://www.w3.org/2000/svg">
  <sodipodi:namedview
     id="namedview8166"
     pagecolor="#ffffff"
     bordercolor="#666666"
     borderopacity="1.0"
     inkscape:showpageshadow="2"
     inkscape:pageopacity="0.0"
     inkscape:pagecheckerboard="0"
     inkscape:deskcolor="#d1d1d1"
     inkscape:document-units="mm"
     showgrid="false"
     inkscape:zoom="0.71624579"
     inkscape:cx="54.450582"
     inkscape:cy="43.281232"
     inkscape:window-width="1480"
     inkscape:window-height="1005"
     inkscape:window-x="168"
     inkscape:window-y="195"
     inkscape:window-maximized="0"
     inkscape:current-layer="layer1" />
  <defs
     id="defs8161" />
  <g
     inkscape:label="Warstwa 1"
     inkscape:groupmode="layer"
     id="layer1"
     transform="translate(-90.411684,-137.08613)">
    <path
       style="fill:#ffffff;fill-opacity:0.498039;stroke:#ffffff;stroke-width:0.79375;stroke-linecap:butt;stroke-linejoin:miter;stroke-dasharray:none;stroke-opacity:1"
       d="m 119.21613,142.14173 c 0,0 -1.07384,-1.35829 -1.84361,-1.6611 -0.49694,-0.19548 -1.60181,-0.026 -1.60181,-0.026 0,0 -4.0704,-1.98944 -6.26135,-2.47658 -2.17323,-0.4832 -4.44856,-0.59907 -6.66652,-0.40657 -1.2262,0.10642 -2.37123,0.69751 -3.591746,0.85637 -0.79634,0.10364 -2.40842,0.0597 -2.40842,0.0597 0,0 -1.29736,-0.55636 -1.98859,-0.60823 -0.45849,-0.0344 -0.92407,0.0699 -1.36445,0.20208 -0.34463,0.10342 -0.64098,0.33108 -0.97845,0.45591 -0.65193,0.24115 -2.00832,0.56134 -2.00832,0.56134 l 2.19436,0.40391 -1.28326,0.91026 2.60027,-0.63845 c 0,0 3.54555,-0.15624 5.31156,-0.0295 0.833996,0.0598 2.480706,0.37195 2.480706,0.37195 0,0 0.25441,1.62581 0.32576,2.44487 0.13842,1.58911 -0.0359,3.20336 0.19766,4.78128 0.21069,1.42317 1.0788,4.17904 1.0788,4.17904 l 0.53126,-0.95484 0.54862,1.24635 0.40158,-1.73273 c 0,0 0.59343,2.9455 1.00621,4.38836 0.30978,1.08283 1.1009,3.19441 1.1009,3.19441 l 0.49307,1.05414 0.55052,-0.92745 0.33303,1.37096 0.41384,-1.29041 0.83959,1.05901 -0.05,-2.07439 0.73901,1.26446 0.23337,-1.1147 -0.19101,-1.7967 0.57751,0.11693 -0.0185,-1.23829 0.62635,-0.77475 -0.47194,-1.24698 0.3473,-0.29448 0.19368,-0.86233 0.31129,-0.15563 0.0177,-3.61014 c 1.12535,-1.43972 2.3888,-2.58294 3.11026,-4.88985 -0.0163,-0.14757 2.42563,-0.50523 3.73906,0.3845 0.18017,0.12205 0.42471,-0.4958 0.42471,-0.4958 z"
       id="path1027"
       sodipodi:nodetypes="cscssscsssccccscssccccscccccccccccccccccccsc" />
  </g>
</svg>
