<?xml version="1.0" encoding="UTF-8" standalone="no"?>
<!-- Created with Inkscape (http://www.inkscape.org/) -->

<svg
   width="29.615864mm"
   height="24.520041mm"
   viewBox="0 0 29.615864 24.52004"
   version="1.1"
   id="svg1925"
   inkscape:version="1.2 (1:1.2.1+202207142221+cd75a1ee6d)"
   sodipodi:docname="bird-2.svg"
   inkscape:export-filename="bird-2.png"
   inkscape:export-xdpi="96"
   inkscape:export-ydpi="96"
   xmlns:inkscape="http://www.inkscape.org/namespaces/inkscape"
   xmlns:sodipodi="http://sodipodi.sourceforge.net/DTD/sodipodi-0.dtd"
   xmlns="http://www.w3.org/2000/svg"
   xmlns:svg="http://www.w3.org/2000/svg">
  <sodipodi:namedview
     id="namedview1927"
     pagecolor="#ffffff"
     bordercolor="#666666"
     borderopacity="1.0"
     inkscape:showpageshadow="2"
     inkscape:pageopacity="0.0"
     inkscape:pagecheckerboard="0"
     inkscape:deskcolor="#d1d1d1"
     inkscape:document-units="mm"
     showgrid="false"
     inkscape:zoom="0.71624579"
     inkscape:cx="16.055941"
     inkscape:cy="330.892"
     inkscape:window-width="2560"
     inkscape:window-height="1305"
     inkscape:window-x="0"
     inkscape:window-y="27"
     inkscape:window-maximized="1"
     inkscape:current-layer="layer1" />
  <defs
     id="defs1922" />
  <g
     inkscape:label="Warstwa 1"
     inkscape:groupmode="layer"
     id="layer1"
     transform="translate(-100.84279,-61.184732)">
    <path
       style="fill:#ffffff;fill-opacity:0.498039;stroke:#ffffff;stroke-width:0.79375;stroke-linecap:butt;stroke-linejoin:miter;stroke-dasharray:none;stroke-opacity:1"
       d="m 111.73731,71.349519 0.21787,0.56505 c 0.65441,-0.82876 1.1516,-1.84768 1.65302,-2.86147 l 0.19117,0.47496 c 0,0 1.19215,-1.43504 2.03027,-1.73518 0.66058,-0.23659 1.4352,-0.1694 2.10462,0.0409 0.178,0.0559 0.46532,0.31109 0.46532,0.31109 0,0 -0.65002,0.42492 -0.80791,0.75899 -0.54715,1.15765 -0.25497,3.83284 -0.25497,3.83284 0,0 0.22522,1.04777 0.21875,1.57913 -0.0179,1.47346 -0.71298,4.36282 -0.71298,4.36282 l -0.67183,3.36381 -0.20481,1.98288 c 0.66592,-0.34046 0.96364,-0.83834 1.15514,-1.38167 0.54771,0.97335 -0.0391,1.91051 -0.13293,2.8634 0.66991,-1.16605 1.15592,-2.33692 1.24559,-3.51819 0.61963,1.09117 0.64738,2.31096 0.71211,3.5227 0.25352,-1.08894 0.60991,-2.18911 0.68066,-3.25812 0.59033,0.85912 0.83074,1.78148 0.96955,2.7222 l 0.43117,-2.24307 0.57708,0.96192 0.1096,-1.80243 0.50846,0.38876 0.3312,-1.85134 0.15089,0.43798 0.46382,-1.78369 0.45424,0.13469 0.17275,-2.19171 0.47461,0.2182 0.15505,-3.39403 0.38082,0.22054 0.7123,-3.05226 0.98562,-3.9947 0.0194,-1.187484 1.99236,-0.16375 -0.55453,-0.7594 1.29983,-0.42691 -2.29277,-0.85731 c 0,0 -4.46161,-1.9232 -6.83692,-2.03827 -2.09337,-0.10142 -4.15902,0.61801 -6.17084,1.20546 -1.48481,0.43357 -2.84575,1.22484 -4.31748,1.70092 -0.81983,0.2652 -2.50431,0.64065 -2.50431,0.64065 0,0 -1.10855,-0.24743 -1.57865,-0.16425 -0.69867,0.12362 -1.41542,1.04156 -1.41542,1.04156 l -1.57905,1.212134 c 1.26367,-0.25551 2.94468,-0.53574 3.66365,-0.65569 l 3.17329,-0.529374 -3.25421,7.170594 c 0,0 -0.5973,1.74096 -1.30393,2.23609 -1.10815,0.77647 -3.99408,0.72476 -3.99408,0.72476 1.32514,0.0199 2.5082,0.25737 4.23511,-0.33797 l -2.80834,1.5312 c 1.31164,-0.34905 2.52433,-0.77789 3.34443,-1.52331 -0.11452,0.71081 -0.79334,1.20501 -1.38075,1.7343 0.92963,-0.49865 1.55988,-1.05277 2.03882,-1.63493 l -0.34214,1.73319 c 0.68502,-0.79354 0.67538,-1.49054 1.16521,-2.30342 0.29688,0.38403 0.192,0.85721 0.14468,1.3176 0.5029,-0.50891 0.81027,-1.26608 1.07753,-2.07418 l 0.11626,1.04384 c 0.63691,-0.76908 1.21106,-1.6353 1.42845,-2.42876 l 0.12187,0.92747 c 0.74152,-0.76825 1.26095,-1.77102 1.7463,-2.80975 z"
       id="path3288"
       sodipodi:nodetypes="ccccsscscsccccccccccccccccccccccccccccssscsccsccscccccccccccccc" />
  </g>
</svg>
