<?xml version="1.0" encoding="UTF-8" standalone="no"?>
<!-- Created with Inkscape (http://www.inkscape.org/) -->

<svg
   width="30.238604mm"
   height="23.711571mm"
   viewBox="0 0 30.238604 23.711571"
   version="1.1"
   id="svg7447"
   inkscape:version="1.2 (1:1.2.1+202207142221+cd75a1ee6d)"
   sodipodi:docname="bird-6.svg"
   inkscape:export-filename="bird-6.png"
   inkscape:export-xdpi="96"
   inkscape:export-ydpi="96"
   xmlns:inkscape="http://www.inkscape.org/namespaces/inkscape"
   xmlns:sodipodi="http://sodipodi.sourceforge.net/DTD/sodipodi-0.dtd"
   xmlns="http://www.w3.org/2000/svg"
   xmlns:svg="http://www.w3.org/2000/svg">
  <sodipodi:namedview
     id="namedview7449"
     pagecolor="#ffffff"
     bordercolor="#666666"
     borderopacity="1.0"
     inkscape:showpageshadow="2"
     inkscape:pageopacity="0.0"
     inkscape:pagecheckerboard="0"
     inkscape:deskcolor="#d1d1d1"
     inkscape:document-units="mm"
     showgrid="false"
     inkscape:zoom="0.71624579"
     inkscape:cx="58.639088"
     inkscape:cy="43.281232"
     inkscape:window-width="1480"
     inkscape:window-height="1005"
     inkscape:window-x="168"
     inkscape:window-y="195"
     inkscape:window-maximized="0"
     inkscape:current-layer="layer1" />
  <defs
     id="defs7444" />
  <g
     inkscape:label="Warstwa 1"
     inkscape:groupmode="layer"
     id="layer1"
     transform="translate(-89.549906,-136.95216)">
    <path
       style="fill:#ffffff;fill-opacity:0.498039;stroke:#ffffff;stroke-width:0.79375;stroke-linecap:butt;stroke-linejoin:miter;stroke-dasharray:none;stroke-opacity:1"
       d="m 104.06055,150.30161 -0.0683,1.79667 0.83212,-1.19102 c 0,0 0.37359,2.73635 0.83159,4.0386 0.44163,1.25569 0.95265,1.8039 1.16809,3.81659 0.31269,-0.006 0.45333,-0.36672 0.64253,-0.6272 0.38057,0.0964 0.47936,0.69675 0.62988,1.20459 0.18364,-0.55286 0.55544,-1.08924 0.2822,-1.68213 0.516,0.2671 0.68104,0.69562 0.76077,1.16337 0.21435,-0.50633 0.30883,-1.01718 0.0494,-1.54137 l 0.75006,0.77033 -0.0832,-1.16122 0.22389,-0.46537 0.0453,-1.0328 c 0,0 0.26498,-0.31646 0.32624,-0.50821 0.10359,-0.3243 -0.023,-0.68736 0.0487,-1.02015 0.0971,-0.45049 0.46226,-0.82698 0.50891,-1.28546 0.0518,-0.50893 -0.13644,-0.94118 0.0738,-1.33367 l 0.33029,-0.61675 c 0,0 0.17257,-0.68587 0.1784,-1.03636 0.009,-0.55948 -0.32731,-1.11195 -0.22954,-1.6629 0.11587,-0.65294 0.93347,-1.75679 0.93347,-1.75679 l 2.79005,-3.45012 c 0,0 1.46087,-0.16131 2.19442,-0.16617 0.67959,-0.004 1.78065,0.26908 1.78065,0.26908 0,0 -0.76323,-1.56843 -1.52221,-1.92696 -0.42915,-0.20272 -0.95917,-0.0115 -1.41747,-0.13485 -0.52959,-0.14259 -1.1244,-0.28314 -1.49474,-0.68766 -0.15698,-0.17147 -0.0189,-0.56987 -0.23457,-0.65679 -5.12074,-2.06448 -8.24045,-2.02312 -8.24045,-2.02312 0,0 -2.68588,-0.12508 -4.00999,0.0588 -0.95777,0.13297 -1.84201,0.63712 -2.802442,0.7493 -0.99535,0.11625 -2.05925,0.24466 -3.00512,-0.0863 0,0 -1.24185,-0.60299 -1.9147,-0.67007 -0.40557,-0.0404 -0.84331,-0.008 -1.21114,0.16806 -0.23923,0.11422 -0.58041,0.54367 -0.58041,0.54367 l -1.62516,0.44508 1.74965,0.51523 -1.84827,0.81573 2.90131,-0.583 c 0,0 3.10389,0.0536 4.65428,-0.003 0.62981,-0.023 1.23951,-0.11899 1.852972,0.0255 0.60835,0.14324 1.27452,0.29074 1.6458,0.79351 0.36786,0.49814 0.41066,1.18734 0.43492,1.80613 0.0415,1.05942 -0.51548,2.08099 -0.50031,3.14113 0.0311,2.17165 1.46365,6.13841 1.46365,6.13841 z"
       id="path6443"
       sodipodi:nodetypes="cccsccccccccccsssscssccscsssscssssscccccssssscc" />
  </g>
</svg>
