<?xml version="1.0" encoding="UTF-8" standalone="no"?>
<!-- Created with Inkscape (http://www.inkscape.org/) -->

<svg
   width="186.44231mm"
   height="84.451088mm"
   viewBox="0 0 186.44232 84.451087"
   version="1.1"
   id="svg5"
   xml:space="preserve"
   inkscape:version="1.2 (dc2aeda, 2022-05-15)"
   sodipodi:docname="copter-white.svg"
   inkscape:export-filename="copter-white.png"
   inkscape:export-xdpi="96"
   inkscape:export-ydpi="96"
   xmlns:inkscape="http://www.inkscape.org/namespaces/inkscape"
   xmlns:sodipodi="http://sodipodi.sourceforge.net/DTD/sodipodi-0.dtd"
   xmlns="http://www.w3.org/2000/svg"
   xmlns:svg="http://www.w3.org/2000/svg"><sodipodi:namedview
     id="namedview7"
     pagecolor="#ffffff"
     bordercolor="#666666"
     borderopacity="1.0"
     inkscape:showpageshadow="2"
     inkscape:pageopacity="0.0"
     inkscape:pagecheckerboard="true"
     inkscape:deskcolor="#d1d1d1"
     inkscape:document-units="mm"
     showgrid="false"
     inkscape:zoom="1"
     inkscape:cx="505.5"
     inkscape:cy="197.5"
     inkscape:window-width="2056"
     inkscape:window-height="1257"
     inkscape:window-x="0"
     inkscape:window-y="44"
     inkscape:window-maximized="1"
     inkscape:current-layer="layer1"
     showguides="true"><sodipodi:guide
       position="-45.091196,-5.7844386"
       orientation="0,-1"
       id="guide1120"
       inkscape:locked="false" /><sodipodi:guide
       position="177.99697,25.961746"
       orientation="0,-1"
       id="guide1148"
       inkscape:locked="false" /><sodipodi:guide
       position="86.158283,83.12766"
       orientation="0,-1"
       id="guide2602"
       inkscape:locked="false" /><sodipodi:guide
       position="84.801893,77.14082"
       orientation="0,-1"
       id="guide2604"
       inkscape:locked="false" /><sodipodi:guide
       position="82.790693,75.8312"
       orientation="0,-1"
       id="guide2606"
       inkscape:locked="false" /><sodipodi:guide
       position="112.91197,61.425368"
       orientation="0,-1"
       id="guide2608"
       inkscape:locked="false" /><sodipodi:guide
       position="74.371703,77.14082"
       orientation="1,0"
       id="guide2610"
       inkscape:locked="false" /><sodipodi:guide
       position="79.048913,77.14082"
       orientation="1,0"
       id="guide2612"
       inkscape:locked="false" /><sodipodi:guide
       position="68.619502,79.250069"
       orientation="1,0"
       id="guide2614"
       inkscape:locked="false" /><sodipodi:guide
       position="84.521262,79.292339"
       orientation="1,0"
       id="guide2616"
       inkscape:locked="false" /><sodipodi:guide
       position="104.30589,5.1116811"
       orientation="0,-1"
       id="guide2618"
       inkscape:locked="false" /><sodipodi:guide
       position="88.917844,1.3231348"
       orientation="0,-1"
       id="guide2620"
       inkscape:locked="false" /><sodipodi:guide
       position="83.351953,13.250036"
       orientation="0,-1"
       id="guide2622"
       inkscape:locked="false" /><sodipodi:guide
       position="46.589027,30.976687"
       orientation="0,-1"
       id="guide2624"
       inkscape:locked="false" /><sodipodi:guide
       position="50.377581,42.108467"
       orientation="1,0"
       id="guide2626"
       inkscape:locked="false" /><sodipodi:guide
       position="186.06365,79.011709"
       orientation="0,-1"
       id="guide2628"
       inkscape:locked="false" /><sodipodi:guide
       position="182.04124,48.375938"
       orientation="0,-1"
       id="guide2630"
       inkscape:locked="false" /><sodipodi:guide
       position="84.521262,81.690359"
       orientation="0,-1"
       id="guide2636"
       inkscape:locked="false" /><sodipodi:guide
       position="83.539043,73.49259"
       orientation="0,-1"
       id="guide2699"
       inkscape:locked="false" /><sodipodi:guide
       position="69.834803,73.49259"
       orientation="1,0"
       id="guide2752"
       inkscape:locked="false" /><sodipodi:guide
       position="83.539043,73.49259"
       orientation="1,0"
       id="guide2754"
       inkscape:locked="false" /><sodipodi:guide
       position="47.430926,63.319648"
       orientation="1,0"
       id="guide1117"
       inkscape:locked="false" /><sodipodi:guide
       position="47.430926,63.647048"
       orientation="0,-1"
       id="guide1119"
       inkscape:locked="false" /></sodipodi:namedview><defs
     id="defs2" /><g
     inkscape:label="Warstwa 1"
     inkscape:groupmode="layer"
     id="layer1"
     transform="translate(109.29319,-96.692592)"><path
       style="fill:none;fill-opacity:1;stroke:#ffffff;stroke-width:2.64583;stroke-linecap:butt;stroke-linejoin:miter;stroke-dasharray:none;stroke-opacity:1"
       d="m -40.673685,99.588544 -65.101665,-1.572518 c -3.14623,-0.076 -2.60968,6.061944 -0.28142,5.986834 l 65.383088,-2.10925 c 0.01674,2.10602 1.083003,2.07347 1.083003,2.07347 l 13.836535,0.0358 c 0,0 0.941272,-0.002 0.982217,-1.87088 l 65.421635,1.87088 c 3.099116,-0.65267 2.357514,-5.986834 0.08569,-5.986834 -13.283761,-2e-6 -65.507323,1.437292 -65.507323,1.437292 -0.0019,-1.467885 -0.982219,-1.437292 -0.982219,-1.437292 h -13.704244 c -1.215297,0 -1.215297,1.437294 -1.215297,1.572518 z"
       id="path2634"
       sodipodi:nodetypes="csscccccscccc" /><path
       style="fill:none;fill-opacity:1;stroke:#ffffff;stroke-width:2.64583;stroke-linecap:butt;stroke-linejoin:miter;stroke-dasharray:none;stroke-opacity:1"
       d="m -38.021235,105.31248 c -1.465583,0.0155 -1.437153,2.33861 -1.437153,2.33861 h 13.704245 c -1e-6,-0.81985 -0.05967,-2.3235 -1.656422,-2.33861 h -2.833706 v -1.30962 h -4.677217 l 10e-7,1.30962 z"
       id="path2762"
       sodipodi:nodetypes="ccccccccc" /><path
       id="path357"
       style="fill:none;fill-opacity:1;stroke:#ffffff;stroke-width:2.64583;stroke-linecap:butt;stroke-linejoin:miter;stroke-dasharray:none;stroke-opacity:1"
       d="m 72.395415,102.29268 c -1.088708,0.009 -2.0947,0.20945 -2.424141,0.56689 -6.179403,6.70465 -15.635738,16.85892 -15.635738,16.85892 H -0.55413701 c 0,0 -7.06312749,-10.9234 -10.50788599,-11.31559 -8.923793,-1.01601 -24.424236,-0.6196 -36.517151,-0.6196 -4.604412,0 -5.867859,5.69113 -5.867859,5.69113 0,0 -20.131074,-0.14806 -29.990934,12.58993 -5.757501,7.43813 -12.40668,24.80181 -6.396509,32.03732 5.208498,6.27039 12.310387,9.79216 23.312273,9.79216 h 40.768054 c 8.102341,0 13.604186,-10.73136 17.766874,-17.58187 2.9548394,-4.86276 7.58403317,-15.29984 7.58403317,-15.29984 L 56.424814,124.51303 c 0,0 6.968897,8.25479 8.257894,8.25479 h 5.817733 c 3.113049,-1e-5 -1.183319,-5.45277 -2.227255,-10.10274 0,0 1.87126,-0.73644 2.814816,-1.11104 0.583137,-0.23151 0.287381,-1.83555 -0.340031,-1.83555 -1.21505,1e-5 -2.086695,0 -2.086695,0 0,0 4.857008,-9.95778 7.118429,-15.71584 0.474826,-1.209 -1.569776,-1.72524 -3.38429,-1.70997 z M -61.862023,117.4964 c 1.224942,-0.11266 2.946589,0.81751 2.94659,2.22209 v 27.93835 c -10e-7,1.74707 -1.022278,2.64221 -2.94659,2.50992 h -23.841955 c -2.550383,0 -3.343857,-1.62497 -3.219442,-3.11247 1.148466,-13.731 13.759449,-28.3345 27.061397,-29.55789 z" /><path
       style="fill:none;fill-opacity:0.478596;stroke:#ffffff;stroke-width:2.64583;stroke-linecap:butt;stroke-linejoin:miter;stroke-dasharray:none;stroke-opacity:1"
       d="m -61.862258,150.30556 c 1.92431,0.13229 2.94665,-0.76319 2.94665,-2.51027 v -27.93841 c 0,-1.40458 -1.72171,-2.33434 -2.94665,-2.22168 -13.30196,1.22339 -25.91265,15.82649 -27.06112,29.5575 -0.12441,1.4875 0.66881,3.11286 3.21919,3.11286 h 23.84193"
       id="path1125-6"
       sodipodi:nodetypes="cccsssc" /><path
       style="fill:none;stroke:#ffffff;stroke-width:2.64583;stroke-linecap:butt;stroke-linejoin:miter;stroke-dasharray:none;stroke-opacity:1"
       d="m -33.79372,167.89364 8.03957,8.13836"
       id="path1229" /><path
       style="fill:none;stroke:#ffffff;stroke-width:2.64583;stroke-linecap:butt;stroke-linejoin:miter;stroke-dasharray:none;stroke-opacity:1"
       d="M -25.75415,176.032 H -65.954793"
       id="path1231" /><path
       style="fill:none;stroke:#ffffff;stroke-width:2.64583;stroke-linecap:butt;stroke-linejoin:miter;stroke-dasharray:none;stroke-opacity:1"
       d="m -65.954795,176.032 7.454707,-8.23133"
       id="path1233" /><path
       style="fill:none;stroke:#ffffff;stroke-width:2.64583;stroke-linecap:butt;stroke-linejoin:miter;stroke-dasharray:none;stroke-opacity:1"
       d="m -58.500088,167.80067 -8.02232,0.093"
       id="path1235" /><path
       id="path1237"
       style="fill:none;fill-opacity:1;stroke:#ffffff;stroke-width:2.64583;stroke-linecap:butt;stroke-linejoin:miter;stroke-dasharray:none;stroke-opacity:1"
       d="m -66.522203,167.89384 -3.778064,8.00572 -17.969446,0.22117 c -6.366713,-1.14489 -7.618011,-4.21237 -9.612333,-6.78253 -0.569159,-0.7335 -1.728942,-1.31229 -2.750734,-0.4377 -0.59708,0.51106 -1.10929,1.55182 -0.12816,2.74144 2.623264,3.18069 7.283507,8.17882 12.333614,8.17882 h 86.8443112 c 1.8778968,0 2.23719906,-3.69589 -0.2464966,-3.69589 l -20.1135006,-0.22531 -3.998206,-8.00572 h -7.852751 l 8.03982,8.13801 h -40.200647 l 7.370609,-8.13801 z" /></g></svg>
