<?xml version="1.0" encoding="UTF-8" standalone="no"?>
<!-- Created with Inkscape (http://www.inkscape.org/) -->

<svg
   width="304.43991"
   height="158.41985"
   viewBox="0 0 80.549725 41.915251"
   version="1.1"
   id="svg5"
   xml:space="preserve"
   inkscape:version="1.2 (1:1.2.1+202207142221+cd75a1ee6d)"
   sodipodi:docname="dwuplatowiec.svg"
   inkscape:export-filename="dwuplatowiec.png"
   inkscape:export-xdpi="96"
   inkscape:export-ydpi="96"
   xmlns:inkscape="http://www.inkscape.org/namespaces/inkscape"
   xmlns:sodipodi="http://sodipodi.sourceforge.net/DTD/sodipodi-0.dtd"
   xmlns="http://www.w3.org/2000/svg"
   xmlns:svg="http://www.w3.org/2000/svg"><sodipodi:namedview
     id="namedview7"
     pagecolor="#ffffff"
     bordercolor="#666666"
     borderopacity="1.0"
     inkscape:showpageshadow="2"
     inkscape:pageopacity="0.0"
     inkscape:pagecheckerboard="true"
     inkscape:deskcolor="#d1d1d1"
     inkscape:document-units="px"
     showgrid="false"
     showguides="true"
     inkscape:zoom="1"
     inkscape:cx="267"
     inkscape:cy="119"
     inkscape:window-width="2560"
     inkscape:window-height="1305"
     inkscape:window-x="0"
     inkscape:window-y="27"
     inkscape:window-maximized="1"
     inkscape:current-layer="layer1"><sodipodi:guide
       position="73.756134,38.623658"
       orientation="1,0"
       id="guide761"
       inkscape:locked="false" /><sodipodi:guide
       position="16.897361,30.199728"
       orientation="1,0"
       id="guide765"
       inkscape:locked="false" /><sodipodi:guide
       position="20.406734,15.560398"
       orientation="1,0"
       id="guide767"
       inkscape:locked="false" /><sodipodi:guide
       position="40.531783,10.550558"
       orientation="0,-1"
       id="guide1505"
       inkscape:locked="false" /><sodipodi:guide
       position="47.839553,26.002418"
       orientation="-0.063017568,0.99801242"
       id="guide1507"
       inkscape:locked="false" /></sodipodi:namedview><defs
     id="defs2" /><g
     inkscape:label="Warstwa 1"
     inkscape:groupmode="layer"
     id="layer1"
     transform="translate(-70.365027,-105.95838)"><circle
       style="fill:#3b3b3b;fill-opacity:0.347135;stroke:#fff42c;stroke-width:0.529167;stroke-linecap:round;stroke-linejoin:round;stroke-dasharray:none;stroke-opacity:1"
       id="path1470"
       cx="143.17435"
       cy="127.07639"
       r="1.9204621" /><circle
       style="fill:#fff42c;fill-opacity:0.347135;stroke:#fff42c;stroke-width:0.529167;stroke-linecap:round;stroke-linejoin:round;stroke-dasharray:none;stroke-opacity:1"
       id="path1431"
       cx="90.639465"
       cy="142.48033"
       r="3.3770773" /><path
       style="fill:none;stroke:#fff42c;stroke-width:0.529167;stroke-linecap:butt;stroke-linejoin:miter;stroke-dasharray:none;stroke-opacity:1"
       d="m 131.94266,117.24679 -19.95702,-1.86632 c -5.24932,4.12653 -9.8091,4.00123 -12.736642,0.0886 0,0 -16.077509,0.052 -20.268301,0.0662 -2.934284,0.01 -2.742634,16.97234 -0.07568,17.15814 2.186397,0.15232 8.841308,0.12105 8.841308,0.12105 0,0 38.850305,-3.47461 55.988475,-9.27599 3.37222,-1.14152 6.81889,-2.24632 6.91462,-8.14019 0.0593,-3.65063 -3.49067,-9.27777 -7.14031,-9.17386 -8.00975,0.22804 -11.56645,11.02234 -11.56645,11.02234 z"
       id="path631"
       sodipodi:nodetypes="cccsscsssc" /><path
       style="fill:#939393;fill-opacity:0.31349555;stroke:none;stroke-width:0.529167;stroke-linecap:butt;stroke-linejoin:miter;stroke-dasharray:none;stroke-opacity:1"
       d="m 76.923784,124.47781 c -0.01888,1.63918 0.269577,8.12794 1.981234,8.2156 2.353218,0.12052 8.841308,0.12105 8.841308,0.12105 0,0 38.850304,-3.47461 55.988474,-9.27599 3.37222,-1.14152 5.00778,-1.93275 5.85857,-3.71397 l -16.28944,1.0933 c -7.91012,0.48492 -39.310187,2.79912 -56.380146,3.56001 z"
       id="path631-6"
       sodipodi:nodetypes="cscsccc" /><path
       style="fill:none;stroke:#fff42c;stroke-width:0.529167;stroke-linecap:butt;stroke-linejoin:miter;stroke-dasharray:none;stroke-opacity:1"
       d="m 76.499397,120.29775 c -0.300935,1.86754 -0.329172,3.7122 -0.106756,5.5126 0,0 -5.751554,-0.61856 -5.763012,-2.67833 -0.01211,-2.17682 5.869768,-2.83427 5.869768,-2.83427 z"
       id="path633"
       sodipodi:nodetypes="ccsc" /><path
       style="fill:none;stroke:#fff42c;stroke-width:0.529167;stroke-linecap:butt;stroke-linejoin:miter;stroke-dasharray:none;stroke-opacity:1"
       d="m 85.855884,138.30345 c 2.189286,-3.91658 12.964371,-2.74478 10.630118,6.36602"
       id="path639"
       sodipodi:nodetypes="cc" /><path
       style="fill:none;stroke:#fff42c;stroke-width:0.529167;stroke-linecap:butt;stroke-linejoin:miter;stroke-dasharray:none;stroke-opacity:1"
       d="m 90.771762,132.31324 -10e-7,5.08438"
       id="path641"
       sodipodi:nodetypes="cc" /><path
       style="fill:none;stroke:#fff42c;stroke-width:0.529167;stroke-linecap:butt;stroke-linejoin:miter;stroke-dasharray:none;stroke-opacity:1"
       d="m 97.007096,131.81364 -3.624693,6.48994"
       id="path643"
       sodipodi:nodetypes="cc" /><path
       style="fill:none;stroke:#fff42c;stroke-width:0.529167;stroke-linecap:butt;stroke-linejoin:miter;stroke-dasharray:none;stroke-opacity:1"
       d="m 107.01179,109.63428 c 0,0 -9.146084,0.0498 -19.715138,-0.0892 -3.081552,-0.0405 -0.160978,-3.51377 9.721876,-2.20484 3.758182,0.49775 9.993262,2.29402 9.993262,2.29402 z"
       id="path645"
       sodipodi:nodetypes="cssc" /><path
       style="fill:none;stroke:#fff42c;stroke-width:0.529167;stroke-linecap:butt;stroke-linejoin:miter;stroke-dasharray:none;stroke-opacity:1"
       d="m 91.834168,109.59484 2.64993,15.87257"
       id="path698"
       sodipodi:nodetypes="cc" /><path
       style="fill:none;stroke:#fff42c;stroke-width:0.529167;stroke-linecap:butt;stroke-linejoin:miter;stroke-dasharray:none;stroke-opacity:1"
       d="m 101.18474,109.57306 2.68876,16.21565"
       id="path700"
       sodipodi:nodetypes="cc" /><path
       style="fill:none;stroke:#fff42c;stroke-width:0.529167;stroke-linecap:butt;stroke-linejoin:miter;stroke-dasharray:none;stroke-opacity:1"
       d="m 94.789304,115.37612 c 10e-7,-1.40955 1.373564,-3.20273 4.059183,-3.3281 -0.395616,1.61203 -0.291946,2.43723 0.400509,3.42108"
       id="path702"
       sodipodi:nodetypes="ccc" /><path
       style="fill:none;stroke:#fff42c;stroke-width:0.529167;stroke-linecap:butt;stroke-linejoin:miter;stroke-dasharray:none;stroke-opacity:1"
       d="m 99.892716,125.1115 c 3.682184,0.1803 10.719984,2.72049 10.719984,2.72049 0,0 -7.03813,0.0395 -18.607143,-0.21255 -5.649547,-0.12309 1.566358,-2.81745 7.887159,-2.50794 z"
       id="path706"
       sodipodi:nodetypes="scss" /><path
       style="fill:none;stroke:#fff42c;stroke-width:0.529167;stroke-linecap:butt;stroke-linejoin:miter;stroke-dasharray:none;stroke-opacity:1"
       d="m 87.130098,115.38079 -0.04153,17.43564"
       id="path708"
       sodipodi:nodetypes="cc" /><path
       style="fill:none;stroke:#fff42c;stroke-width:0.529167;stroke-linecap:butt;stroke-linejoin:miter;stroke-dasharray:none;stroke-opacity:1"
       d="m 144.04358,106.24941 0.10713,17.14817"
       id="path763"
       sodipodi:nodetypes="cc" /><circle
       style="fill:none;fill-opacity:0.935356;stroke:#fff42c;stroke-width:0.529167;stroke-linecap:round;stroke-linejoin:round;stroke-dasharray:none;stroke-opacity:1"
       id="path769"
       cx="90.639465"
       cy="142.62421"
       r="4.9848442" /><circle
       style="fill:#3b3b3b;fill-opacity:0.347135;stroke:#fff42c;stroke-width:0.529167;stroke-linecap:round;stroke-linejoin:round;stroke-dasharray:none;stroke-opacity:1"
       id="path1429"
       cx="90.639465"
       cy="142.62421"
       r="1.2578225" /><path
       style="fill:none;stroke:#fff42c;stroke-width:0.529167;stroke-linecap:butt;stroke-linejoin:miter;stroke-dasharray:none;stroke-opacity:1"
       d="m 75.611859,116.17205 c 0.163619,-1.62535 -0.229145,-3.66131 -0.959925,-4.67578 -0.745045,0.84989 -0.855573,3.13855 -0.841932,4.74479 0.01261,1.48462 0.875878,4.09279 0.875878,4.09279 0,0 0.775399,-2.66598 0.925979,-4.1618 z"
       id="path1433"
       sodipodi:nodetypes="scscs" /><path
       style="fill:none;stroke:#fff42c;stroke-width:0.529167;stroke-linecap:butt;stroke-linejoin:miter;stroke-dasharray:none;stroke-opacity:1"
       d="m 75.646036,129.97065 c 0.163619,1.62535 -0.229145,3.66131 -0.959925,4.67578 -0.745045,-0.84989 -0.855573,-3.13854 -0.841932,-4.74478 0.01261,-1.48463 0.875878,-4.09279 0.875878,-4.09279 0,0 0.775399,2.66598 0.925979,4.16179 z"
       id="path1433-3"
       sodipodi:nodetypes="scscs" /><circle
       style="fill:none;fill-opacity:0.935356;stroke:#fff42c;stroke-width:0.529167;stroke-linecap:round;stroke-linejoin:round;stroke-dasharray:none;stroke-opacity:1"
       id="path1462"
       cx="143.17633"
       cy="127.03972"
       r="0.27819148" /><circle
       style="fill:none;fill-opacity:0.935356;stroke:#fff42c;stroke-width:0.529167;stroke-linecap:round;stroke-linejoin:round;stroke-dasharray:none;stroke-opacity:1"
       id="path1466"
       cx="143.17435"
       cy="127.07639"
       r="0.9448294" /><path
       style="fill:none;stroke:#fff42c;stroke-width:0.529167;stroke-linecap:butt;stroke-linejoin:miter;stroke-dasharray:none;stroke-opacity:1"
       d="m 142.00887,124.0931 0.46994,1.19321"
       id="path1472" /><path
       style="fill:none;stroke:#fff42c;stroke-width:0.529167;stroke-linecap:butt;stroke-linejoin:miter;stroke-dasharray:none;stroke-opacity:1"
       d="m 138.86279,125.02364 2.60738,1.16733"
       id="path1474" /><path
       style="fill:none;stroke:#fff42c;stroke-width:0.529167;stroke-linecap:butt;stroke-linejoin:miter;stroke-dasharray:none;stroke-opacity:1"
       d="m 146.35781,120.12602 c 0,0 -1.7541,-0.0655 -10.04322,-0.14356 -4.60194,-0.0434 1.18288,-1.54219 3.39884,-1.48967 2.17235,0.0515 6.64438,1.63323 6.64438,1.63323 z"
       id="path1476"
       sodipodi:nodetypes="cssc" /></g></svg>
