<?xml version="1.0" encoding="UTF-8" standalone="no"?>
<!-- Created with Inkscape (http://www.inkscape.org/) -->

<svg
   width="53.276508mm"
   height="105.47345mm"
   viewBox="0 0 53.276508 105.47345"
   version="1.1"
   id="svg5"
   xml:space="preserve"
   inkscape:version="1.2 (1:1.2.1+202207142221+cd75a1ee6d)"
   sodipodi:docname="krzyk.svg"
   xmlns:inkscape="http://www.inkscape.org/namespaces/inkscape"
   xmlns:sodipodi="http://sodipodi.sourceforge.net/DTD/sodipodi-0.dtd"
   xmlns="http://www.w3.org/2000/svg"
   xmlns:svg="http://www.w3.org/2000/svg"><sodipodi:namedview
     id="namedview7"
     pagecolor="#ffffff"
     bordercolor="#666666"
     borderopacity="1.0"
     inkscape:showpageshadow="2"
     inkscape:pageopacity="0.0"
     inkscape:pagecheckerboard="true"
     inkscape:deskcolor="#d1d1d1"
     inkscape:document-units="mm"
     showgrid="false"
     inkscape:zoom="1"
     inkscape:cx="103"
     inkscape:cy="83"
     inkscape:window-width="2560"
     inkscape:window-height="1305"
     inkscape:window-x="0"
     inkscape:window-y="27"
     inkscape:window-maximized="1"
     inkscape:current-layer="layer1" /><defs
     id="defs2" /><g
     inkscape:label="Warstwa 1"
     inkscape:groupmode="layer"
     id="layer1"
     transform="translate(-89.091365,-54.675958)"><ellipse
       style="fill:#feff00;fill-opacity:1;stroke:#feff00;stroke-width:0.79375;stroke-linecap:round;stroke-linejoin:round;stroke-dasharray:none;stroke-opacity:1"
       id="path377"
       cx="120.2636"
       cy="84.169006"
       rx="1.7912854"
       ry="3.9902523" /><ellipse
       style="fill:none;fill-opacity:0.302483;stroke:#feff00;stroke-width:0.79375;stroke-linecap:round;stroke-linejoin:round;stroke-dasharray:none;stroke-opacity:1"
       id="path379"
       cx="112.56053"
       cy="70.90847"
       rx="2.3491495"
       ry="2.4712787" /><ellipse
       style="fill:none;fill-opacity:0.302483;stroke:#feff00;stroke-width:0.79375;stroke-linecap:round;stroke-linejoin:round;stroke-dasharray:none;stroke-opacity:1"
       id="path381"
       cx="125.44425"
       cy="71.57235"
       rx="1.5432507"
       ry="1.2426471" /><ellipse
       style="fill:none;fill-opacity:0.302483;stroke:#feff00;stroke-width:0.79375;stroke-linecap:round;stroke-linejoin:round;stroke-dasharray:none;stroke-opacity:1"
       id="path383"
       cx="117.0251"
       cy="116.99401"
       rx="1.1826321"
       ry="1.2593329" /><path
       style="fill:none;stroke:#feff00;stroke-width:0.79375;stroke-linecap:butt;stroke-linejoin:miter;stroke-dasharray:none;stroke-opacity:1"
       d="m 108.92234,68.172608 c 2.08375,-1.742133 4.18907,-3.330222 6.92013,-0.450541"
       id="path448"
       sodipodi:nodetypes="cc" /><path
       style="fill:none;stroke:#feff00;stroke-width:0.79375;stroke-linecap:butt;stroke-linejoin:miter;stroke-dasharray:none;stroke-opacity:1"
       d="m 112.56053,64.997974 c 1.26416,-0.04577 2.85205,0.49389 3.95653,1.84621"
       id="path450"
       sodipodi:nodetypes="cc" /><path
       style="fill:none;stroke:#feff00;stroke-width:0.79375;stroke-linecap:butt;stroke-linejoin:miter;stroke-dasharray:none;stroke-opacity:1"
       d="m 122.31947,68.303925 c 1.28917,-0.747106 2.59453,-1.101203 4.59356,-0.450197"
       id="path452"
       sodipodi:nodetypes="cc" /><path
       style="fill:none;stroke:#feff00;stroke-width:0.79375;stroke-linecap:butt;stroke-linejoin:miter;stroke-dasharray:none;stroke-opacity:1"
       d="m 123.18741,70.90847 c 0.19893,-0.452297 0.56916,-2.190537 2.55302,-2.02448"
       id="path454"
       sodipodi:nodetypes="cc" /><path
       style="fill:none;stroke:#feff00;stroke-width:0.79375;stroke-linecap:butt;stroke-linejoin:miter;stroke-dasharray:none;stroke-opacity:1"
       d="m 128.4963,71.572349 c -0.10184,1.793894 -1.05727,2.660447 -2.65956,2.824232"
       id="path456"
       sodipodi:nodetypes="cc" /><ellipse
       style="fill:#feff00;fill-opacity:1;stroke:#feff00;stroke-width:0.79375;stroke-linecap:round;stroke-linejoin:round;stroke-dasharray:none;stroke-opacity:1"
       id="path458"
       cx="118.15752"
       cy="76.163338"
       rx="0.62021101"
       ry="0.92156702" /><ellipse
       style="fill:#feff00;fill-opacity:1;stroke:#feff00;stroke-width:0.79375;stroke-linecap:round;stroke-linejoin:round;stroke-dasharray:none;stroke-opacity:1"
       id="path460"
       cx="121.79335"
       cy="75.982643"
       rx="0.52611893"
       ry="0.61023414" /><path
       style="fill:none;stroke:#feff00;stroke-width:0.79375;stroke-linecap:butt;stroke-linejoin:miter;stroke-dasharray:none;stroke-opacity:1"
       d="m 111.49199,75.37658 c 2.06566,0.351062 3.51205,-0.493307 4.5469,-2.132136"
       id="path462"
       sodipodi:nodetypes="cc" /><path
       style="fill:none;stroke:#feff00;stroke-width:0.79375;stroke-linecap:butt;stroke-linejoin:miter;stroke-dasharray:none;stroke-opacity:1"
       d="m 132.84379,61.969284 c -8.4349,-10.95215 -23.12903,-7.479378 -25.53979,0.863965 -1.12457,3.892013 -1.60014,8.248778 -0.48651,12.143938 1.05233,3.680768 4.76889,6.061913 6.45614,9.498281 1.36072,2.771334 0.35305,7.026014 2.87712,8.803913 2.94518,2.074516 6.96717,2.07557 9.67254,-0.303229 2.69931,-2.373477 1.74197,-6.769465 3.02465,-10.127205 1.07337,-2.809825 3.95264,-5.066588 4.67936,-8.098411 0.9945,-4.14898 1.9198,-9.401035 -0.68351,-12.781252 z"
       id="path560"
       sodipodi:nodetypes="sssssssss" /><path
       style="fill:none;stroke:#feff00;stroke-width:0.79375;stroke-linecap:butt;stroke-linejoin:miter;stroke-dasharray:none;stroke-opacity:1"
       d="m 106.66034,65.488735 c 0,0 -0.74073,-1.505252 -1.43993,-1.526649 -1.29607,-0.03966 -2.43313,1.429232 -2.83715,2.661356 -2.08599,6.361583 1.74195,14.807859 3.66774,19.746837 0.93314,2.393185 0.50116,7.689711 0.50116,7.689711 0,0 -0.86056,3.998195 -0.0133,5.698139 0.44797,0.898811 1.44551,2.371331 2.16339,1.775551 1.92141,-1.594615 2.86108,-6.947702 3.33869,-10.611413 0.3745,-2.872755 -0.20395,-8.688794 -0.20395,-8.688794"
       id="path1842"
       sodipodi:nodetypes="cssscsssc" /><path
       style="fill:none;stroke:#feff00;stroke-width:0.79375;stroke-linecap:butt;stroke-linejoin:miter;stroke-dasharray:none;stroke-opacity:1"
       d="m 134.29325,64.862998 c 0,0 1.25391,-1.281545 1.98222,-1.087658 0.4106,0.109308 0.66473,1.087659 0.66473,1.087659 0,0 2.81618,8.644938 2.11011,12.966747 -0.70672,4.325757 -5.5375,7.289114 -6.1327,11.631621 -0.43503,3.173924 2.02955,9.394057 2.02955,9.394057 l -3.59093,4.329536 -3.06953,-18.142496"
       id="path1846"
       sodipodi:nodetypes="cscssccc" /><path
       style="fill:none;stroke:#feff00;stroke-width:0.79375;stroke-linecap:butt;stroke-linejoin:miter;stroke-dasharray:none;stroke-opacity:1"
       d="m 106.31545,72.454139 c 0,0 -1.1985,1.157292 -1.31545,1.925857 -0.29024,1.907368 1.69516,5.534175 1.69516,5.534175"
       id="path1902"
       sodipodi:nodetypes="csc" /><path
       style="fill:none;stroke:#feff00;stroke-width:0.79375;stroke-linecap:butt;stroke-linejoin:miter;stroke-dasharray:none;stroke-opacity:1"
       d="m 134.67215,69.851298 c 0,0 1.69063,1.067721 2.00213,1.944301 0.51648,1.453412 -0.54094,4.595632 -0.54094,4.595632"
       id="path1904"
       sodipodi:nodetypes="csc" /><path
       style="fill:none;stroke:#feff00;stroke-width:0.79375;stroke-linecap:butt;stroke-linejoin:miter;stroke-dasharray:none;stroke-opacity:1"
       d="m 116.15075,93.27938 c 0,0 1.02998,10.98097 3.30305,10.70443 1.9492,-0.23714 7.49456,-12.446208 7.49456,-12.446208"
       id="path1957"
       sodipodi:nodetypes="csc" /><path
       style="fill:none;stroke:#feff00;stroke-width:0.79375;stroke-linecap:butt;stroke-linejoin:miter;stroke-dasharray:none;stroke-opacity:1"
       d="m 119.4538,103.98381 c 0.96385,9.29199 -0.4437,15.32834 -2.13105,20.98056"
       id="path1959"
       sodipodi:nodetypes="cc" /><path
       style="fill:none;stroke:#feff00;stroke-width:0.79375;stroke-linecap:butt;stroke-linejoin:miter;stroke-dasharray:none;stroke-opacity:1"
       d="m 106.051,87.16117 c 0,0 -8.006876,-1.150183 -10.74292,5.826625 -1.745147,4.45006 -3.258764,7.134415 -2.112989,15.324965 0.963085,6.8846 -5.886322,14.8661 -2.981422,21.52018 0.95233,2.18145 3.488725,3.39304 5.840172,3.0238 5.488359,-0.86182 7.583429,-8.32207 10.033899,-13.30806 2.35195,-4.78553 4.22926,-15.42756 4.22926,-15.42756 2.56923,-2.01541 2.66564,-3.91257 0.16204,-5.685407"
       id="path1961"
       sodipodi:nodetypes="cssssscc" /><path
       style="fill:none;stroke:#feff00;stroke-width:0.79375;stroke-linecap:butt;stroke-linejoin:miter;stroke-dasharray:none;stroke-opacity:1"
       d="m 96.05384,132.85674 c -2.719322,3.48099 -6.934287,8.62972 -3.79285,27.22656"
       id="path1963"
       sodipodi:nodetypes="cc" /><path
       style="fill:none;stroke:#feff00;stroke-width:0.79375;stroke-linecap:butt;stroke-linejoin:miter;stroke-dasharray:none;stroke-opacity:1"
       d="m 134.94716,98.855423 c 0,0 2.42507,-0.605504 3.51972,1.545817 3.22268,6.33357 4.36166,16.69324 2.81816,24.90359 -2.67069,14.20622 -11.70933,9.06244 -12.18506,7.75012 -1.7017,7.58835 -6.60796,12.58575 -7.16515,15.78773 -0.64362,3.69865 0.0329,11.26265 0.0329,11.26265"
       id="path1965"
       sodipodi:nodetypes="csscsc" /><path
       style="fill:none;stroke:#feff00;stroke-width:0.79375;stroke-linecap:butt;stroke-linejoin:miter;stroke-dasharray:none;stroke-opacity:1"
       d="m 131.35623,103.18496 -2.25625,29.86999"
       id="path1967" /><path
       style="fill:none;stroke:#feff00;stroke-width:0.79375;stroke-linecap:butt;stroke-linejoin:miter;stroke-dasharray:none;stroke-opacity:1"
       d="m 131.02065,107.62753 3.35472,11.54104"
       id="path1969" /><path
       style="fill:none;stroke:#feff00;stroke-width:0.79375;stroke-linecap:butt;stroke-linejoin:miter;stroke-dasharray:none;stroke-opacity:1"
       d="m 106.3925,94.931839 c -1.6551,-0.04861 -3.50203,1.33966 -3.71776,2.59492 -2.41345,14.043391 -5.431565,16.301261 -5.431565,16.301261"
       id="path1971"
       sodipodi:nodetypes="csc" /><ellipse
       style="fill:#feff00;fill-opacity:1;stroke:#feff00;stroke-width:0.79375;stroke-linecap:round;stroke-linejoin:round;stroke-dasharray:none;stroke-opacity:1"
       id="path3096"
       cx="112.66273"
       cy="69.934448"
       rx="1.237242"
       ry="0.97402275" /><ellipse
       style="fill:#feff00;fill-opacity:1;stroke:#feff00;stroke-width:0.79375;stroke-linecap:round;stroke-linejoin:round;stroke-dasharray:none;stroke-opacity:1"
       id="path3098"
       cx="125.86516"
       cy="70.817528"
       rx="0.42091307"
       ry="0.48782173" /></g></svg>
