<?xml version="1.0" encoding="UTF-8" standalone="no"?>
<!-- Created with Inkscape (http://www.inkscape.org/) -->

<svg
   width="45.463272"
   height="45.463268"
   viewBox="0 0 12.028824 12.028823"
   version="1.1"
   id="svg3581"
   inkscape:version="1.3 (0e150ed6c4, 2023-07-21)"
   sodipodi:docname="roc-1.svg"
   inkscape:export-filename="../pysrc/helik/resources/roc-1.png"
   inkscape:export-xdpi="96"
   inkscape:export-ydpi="96"
   xmlns:inkscape="http://www.inkscape.org/namespaces/inkscape"
   xmlns:sodipodi="http://sodipodi.sourceforge.net/DTD/sodipodi-0.dtd"
   xmlns="http://www.w3.org/2000/svg"
   xmlns:svg="http://www.w3.org/2000/svg">
  <sodipodi:namedview
     id="namedview3583"
     pagecolor="#ffffff"
     bordercolor="#666666"
     borderopacity="1.0"
     inkscape:showpageshadow="2"
     inkscape:pageopacity="0.0"
     inkscape:pagecheckerboard="true"
     inkscape:deskcolor="#d1d1d1"
     inkscape:document-units="px"
     showgrid="false"
     showguides="true"
     inkscape:zoom="16"
     inkscape:cx="37.3125"
     inkscape:cy="21.84375"
     inkscape:window-width="1920"
     inkscape:window-height="991"
     inkscape:window-x="-9"
     inkscape:window-y="-9"
     inkscape:window-maximized="1"
     inkscape:current-layer="layer1">
    <sodipodi:guide
       position="6.0217691,32.835178"
       orientation="1,0"
       id="guide3754"
       inkscape:locked="false" />
    <sodipodi:guide
       position="1.1106918,6.4089043"
       orientation="0,-1"
       id="guide3756"
       inkscape:locked="false" />
    <sodipodi:guide
       position="6.0217691,15.034082"
       orientation="0.70710678,-0.70710678"
       id="guide4574"
       inkscape:locked="false" />
    <sodipodi:guide
       position="6.0217691,15.034082"
       orientation="-0.70710678,-0.70710678"
       id="guide4576"
       inkscape:locked="false" />
    <sodipodi:guide
       position="9.1087321,-1.6168092"
       orientation="0,-1"
       id="guide4578"
       inkscape:locked="false" />
    <sodipodi:guide
       position="2.0392438,13.449706"
       orientation="1,0"
       id="guide4580"
       inkscape:locked="false" />
    <sodipodi:guide
       position="10.038897,11.893708"
       orientation="1,0"
       id="guide4582"
       inkscape:locked="false" />
    <sodipodi:guide
       position="-10.208173,9.9359163"
       orientation="0.70710678,-0.70710678"
       id="guide5373"
       inkscape:locked="false" />
    <sodipodi:guide
       position="-2.6034089,6.4089043"
       orientation="1,0"
       id="guide5375"
       inkscape:locked="false" />
    <sodipodi:guide
       position="14.646947,6.4089043"
       orientation="1,0"
       id="guide5377"
       inkscape:locked="false" />
  </sodipodi:namedview>
  <defs
     id="defs3578" />
  <g
     inkscape:label="Warstwa 1"
     inkscape:groupmode="layer"
     id="layer1"
     transform="translate(-7.2147539,-7.6166041)">
    <g
       id="g1"
       transform="rotate(45,13.229166,13.631016)">
      <g
         id="g1702"
         transform="matrix(0.46619967,0,0,0.46619967,7.0617332,7.2762407)">
        <ellipse
           style="fill:#f8ff00;fill-opacity:0.139604;stroke:#e4ed1f;stroke-width:2.76449;stroke-linecap:round;stroke-linejoin:round;stroke-dasharray:none;stroke-opacity:1"
           id="path3758"
           cx="13.229166"
           cy="13.631016"
           rx="11.518691"
           ry="11.51869" />
      </g>
      <path
         style="fill:none;fill-opacity:0.392157;stroke:#e4ed1f;stroke-width:0.165421;stroke-linecap:round;stroke-linejoin:round;stroke-dasharray:none;stroke-opacity:1"
         d="m 12.497503,12.948897 c 0,-0.146075 0.399291,-0.199776 0.615881,-0.240577 0.680889,-0.128267 1.396392,-0.121081 2.078595,0 0.720665,0.127905 2.061671,0.395223 2.061671,0.755628 0,0.371282 -1.345043,0.587612 -2.061671,0.707085 -0.683431,0.113941 -1.372783,0.114958 -2.078595,0 -0.225862,-0.03679 -0.615881,-0.06933 -0.615881,-0.211707 z"
         id="path331"
         sodipodi:nodetypes="ssssssss" />
      <path
         style="fill:#e4ed1f;fill-opacity:1;stroke:#e4ed1f;stroke-width:0.165421;stroke-linecap:round;stroke-linejoin:round;stroke-dasharray:none;stroke-opacity:1"
         d="m 12.497503,13.380503 c 0.256574,-0.206855 2.051776,-0.280182 2.694476,-0.219461 0.726367,0.06862 1.985033,0.154035 2.061671,0.302906 0.169939,0.330108 -1.345043,0.587612 -2.061671,0.707085 -0.683431,0.113941 -1.372783,0.114958 -2.078595,0 -0.225862,-0.03679 -0.615881,-0.06933 -0.615881,-0.211707 z"
         id="path331-3"
         sodipodi:nodetypes="csssssc" />
      <path
         style="fill:#e4ed1f;fill-opacity:1;stroke:none;stroke-width:0.079375;stroke-linecap:round;stroke-linejoin:round;stroke-dasharray:none;stroke-opacity:1"
         d="m 12.112579,13.795731 c -2.06e-4,0.102616 -0.102051,0.209357 -0.202085,0.232235 -0.38969,0.08913 -0.654234,0.05154 -0.974343,0 C 10.4636,13.951882 9.5191469,13.795731 9.5191469,13.795731 L 10.440561,13.576805 8.8527443,13.420429 10.936151,13.238939 9.9642163,13.012712 c 0,0 0.6531567,-0.079 0.9783057,-0.126701 0.30645,-0.04496 0.635407,-0.05726 0.967972,-0.0043 0.102186,0.01626 0.202085,0.132153 0.202085,0.235626 0,0.352346 6.25e-4,0.351721 0,0.678429 z"
         id="path1187"
         sodipodi:nodetypes="ssscccccssss" />
    </g>
  </g>
</svg>
