<?xml version="1.0" encoding="UTF-8" standalone="no"?>
<!-- Created with Inkscape (http://www.inkscape.org/) -->

<svg
   width="806.79663"
   height="363.75171"
   viewBox="0 0 213.46495 96.24264"
   version="1.1"
   id="svg1"
   xml:space="preserve"
   inkscape:version="1.3 (0e150ed, 2023-07-21)"
   sodipodi:docname="samolot.svg"
   inkscape:export-filename="samolot.png"
   inkscape:export-xdpi="96"
   inkscape:export-ydpi="96"
   xmlns:inkscape="http://www.inkscape.org/namespaces/inkscape"
   xmlns:sodipodi="http://sodipodi.sourceforge.net/DTD/sodipodi-0.dtd"
   xmlns="http://www.w3.org/2000/svg"
   xmlns:svg="http://www.w3.org/2000/svg"><sodipodi:namedview
     id="namedview1"
     pagecolor="#ffffff"
     bordercolor="#666666"
     borderopacity="1.0"
     inkscape:showpageshadow="2"
     inkscape:pageopacity="0.0"
     inkscape:pagecheckerboard="true"
     inkscape:deskcolor="#d1d1d1"
     inkscape:document-units="px"
     inkscape:zoom="0.35355339"
     inkscape:cx="823.07229"
     inkscape:cy="746.70476"
     inkscape:window-width="1440"
     inkscape:window-height="855"
     inkscape:window-x="0"
     inkscape:window-y="23"
     inkscape:window-maximized="1"
     inkscape:current-layer="layer1" /><defs
     id="defs1" /><g
     inkscape:label="Warstwa 1"
     inkscape:groupmode="layer"
     id="layer1"
     transform="translate(1.7213346,-104.69609)"><g
       id="g21"
       transform="matrix(0.6966005,0,0,0.64370405,30.95501,59.116142)"
       style="stroke:#dfdfdf;stroke-width:3.95119;stroke-dasharray:none;stroke-opacity:1"><path
         style="fill:none;stroke:#dfdfdf;stroke-width:3.95119;stroke-linecap:butt;stroke-linejoin:miter;stroke-dasharray:none;stroke-opacity:1"
         d="m 175.87181,112.94809 4.34762,-22.184992 -6.23572,-2.341241 7.25804,-0.62145 2.89241,-14.512075 c 0,0 -13.5264,-1.758215 -18.44462,1.322916 -20.69805,12.966761 -66.270045,42.741502 -66.270045,42.741502 -18.271549,2.54264 -27.989541,6.66927 -38.532883,10.64306 -21.117712,-2.85116 -31.564544,2.90436 -45.851996,6.61026 -17.3456717,2.67905 -30.037666,6.20422 -40.886356,10.06453 l -20.755512,3.20016 h 20.776237 c 22.0157349,5.77511 31.8901969,2.67774 47.065752,3.45426 l 84.701983,13.43576 c 0.19924,-0.19924 8.59693,10.17392 59.74391,51.24724 5.75241,4.61945 23.5535,0.82696 23.5535,0.82696 l -4.45679,-21.5435 -8.03975,-0.75809 7.49316,-2.5265 -4.96605,-25.23779 14.68872,0.22218 53.4122,33.99322 9.07738,-2.43129 -20.34602,-32.6559 -11.9859,-0.88901 10.42619,-35.40221 -9.78474,-3.05178 -5.19542,3.6816 -10.33939,-3.58224 3.15435,1.21023 7.45296,-12.17511 5.20401,-27.042687 -8.85511,-2.695639 z"
         id="path1"
         sodipodi:nodetypes="cccccsccccccccsccccccccccccccccccc" /><path
         style="fill:none;stroke:#dfdfdf;stroke-width:3.95119;stroke-linecap:butt;stroke-linejoin:miter;stroke-dasharray:none;stroke-opacity:1"
         d="m 60.886612,127.99581 110.636968,8.37767"
         id="path3" /><path
         style="fill:none;stroke:#dfdfdf;stroke-width:3.95119;stroke-linecap:butt;stroke-linejoin:miter;stroke-dasharray:none;stroke-opacity:1"
         d="M 71.190071,144.09715 180.86728,138.82064"
         id="path4" /><path
         style="fill:none;stroke:#dfdfdf;stroke-width:3.95119;stroke-linecap:butt;stroke-linejoin:miter;stroke-dasharray:none;stroke-opacity:1"
         d="m 179.2647,166.7691 -58.6147,-3.52119 2.91042,-4.49791 34.13125,1.32292 23.18197,-2.91042 38.68347,-26.92659"
         id="path5"
         sodipodi:nodetypes="cccccc" /><path
         style="fill:none;stroke:#dfdfdf;stroke-width:3.95119;stroke-linecap:butt;stroke-linejoin:miter;stroke-dasharray:none;stroke-opacity:1"
         d="M 71.190071,144.09715 180.86728,138.82064"
         id="path6" /><path
         style="fill:none;stroke:#dfdfdf;stroke-width:3.95119;stroke-linecap:butt;stroke-linejoin:miter;stroke-dasharray:none;stroke-opacity:1"
         d="m 175.87181,112.94809 -25.55077,4.90837 -34.11594,0.57067"
         id="path7"
         sodipodi:nodetypes="ccc" /><path
         style="fill:none;stroke:#dfdfdf;stroke-width:3.95119;stroke-linecap:butt;stroke-linejoin:miter;stroke-dasharray:none;stroke-opacity:1"
         d="m 20.40479,133.09198 c 0,0 1.515865,6.01813 8.032686,6.34487 11.612086,0.58222 25.27786,0.96567 37.137103,-1.27187 14.009975,-2.64333 5.485574,-8.55816 0.527724,-9.77423"
         id="path8"
         sodipodi:nodetypes="cssc" /><path
         style="fill:none;stroke:#dfdfdf;stroke-width:3.95119;stroke-linecap:butt;stroke-linejoin:miter;stroke-dasharray:none;stroke-opacity:1"
         d="m 35.921024,147.87076 13.283294,2.92271 -1.19094,5.33891"
         id="path9" /><path
         style="fill:none;stroke:#dfdfdf;stroke-width:3.95119;stroke-linecap:butt;stroke-linejoin:miter;stroke-dasharray:none;stroke-opacity:1"
         d="m 2.1804885,136.90311 c -0.4618775,5.88793 -0.092416,10.11319 0.1633678,14.5658"
         id="path10"
         sodipodi:nodetypes="cc" /><path
         style="fill:none;stroke:#dfdfdf;stroke-width:3.95119;stroke-linecap:butt;stroke-linejoin:miter;stroke-dasharray:none;stroke-opacity:1"
         d="m 66.102303,128.39075 105.421277,7.98273"
         id="path11" /><path
         style="fill:none;stroke:#dfdfdf;stroke-width:3.95119;stroke-linecap:butt;stroke-linejoin:miter;stroke-dasharray:none;stroke-opacity:1"
         d="m 163.38021,126.73542 c 16.18198,-1.70483 32.45886,-2.08098 48.99186,1.12848"
         id="path12"
         sodipodi:nodetypes="cc" /><path
         style="fill:none;stroke:#dfdfdf;stroke-width:3.95119;stroke-linecap:butt;stroke-linejoin:miter;stroke-dasharray:none;stroke-opacity:1"
         d="m 175.89677,134.04903 31.58456,4.63947"
         id="path13" /><path
         style="fill:none;stroke:#dfdfdf;stroke-width:3.95119;stroke-linecap:butt;stroke-linejoin:miter;stroke-dasharray:none;stroke-opacity:1"
         d="M 160.61562,149.76448 193.63677,148.5"
         id="path14" /><path
         style="fill:none;stroke:#dfdfdf;stroke-width:3.95119;stroke-linecap:butt;stroke-linejoin:miter;stroke-dasharray:none;stroke-opacity:1"
         d="m 180.87364,175.30208 -8.87705,0.17769 2.42485,15.47356 9.51893,-0.7033"
         id="path15"
         sodipodi:nodetypes="cccc" /><path
         style="fill:none;stroke:#dfdfdf;stroke-width:3.95119;stroke-linecap:butt;stroke-linejoin:miter;stroke-dasharray:none;stroke-opacity:1"
         d="m 172.83547,180.8329 9.11387,-0.58166"
         id="path16" /><path
         style="fill:none;stroke:#dfdfdf;stroke-width:3.95119;stroke-linecap:butt;stroke-linejoin:miter;stroke-dasharray:none;stroke-opacity:1"
         d="m 207.30104,170.12708 31.61771,22.09271"
         id="path17" /><path
         style="fill:none;stroke:#dfdfdf;stroke-width:3.95119;stroke-linecap:butt;stroke-linejoin:miter;stroke-dasharray:none;stroke-opacity:1"
         d="m 177.12619,93.662499 -5.59262,17.065621"
         id="path18" /><path
         style="fill:none;stroke:#dfdfdf;stroke-width:3.95119;stroke-linecap:butt;stroke-linejoin:miter;stroke-dasharray:none;stroke-opacity:1"
         d="M 187.88181,110.76932 212.18213,88.624491"
         id="path19" /><path
         style="fill:none;stroke:#dfdfdf;stroke-width:3.95119;stroke-linecap:butt;stroke-linejoin:miter;stroke-dasharray:none;stroke-opacity:1"
         d="m 73.374201,134.14036 h 14.202881 l 0.115756,3.09263 21.447782,0.007 0.0733,5.02786"
         id="path20"
         sodipodi:nodetypes="ccccc" /><rect
         style="opacity:0.99;fill:none;fill-opacity:0.688172;stroke:#dfdfdf;stroke-width:3.95119;stroke-linecap:round;stroke-linejoin:round;stroke-dasharray:none;stroke-dashoffset:0;stroke-opacity:1"
         id="rect21"
         width="11.840104"
         height="1.984375"
         x="96.176041"
         y="132.8539" /></g></g></svg>
